<svg xmlns="http://www.w3.org/2000/svg" xmlns:xlink="http://www.w3.org/1999/xlink" width="69" height="70" viewBox="0 0 69 70"><defs><path id="roeza" d="M205 192a7.5 7.5 0 1 1 15 0v50a7.5 7.5 0 1 1-15 0z"/><path id="roezc" d="M155 192a7.5 7.5 0 1 1 15 0v50a7.5 7.5 0 1 1-15 0z"/><path id="roeze" d="M157.1 186.6a7.5 7.5 0 0 1 10.6 0l50.2 50.2a7.5 7.5 0 1 1-10.6 10.6l-50.2-50.2a7.5 7.5 0 0 1 0-10.6z"/><linearGradient id="roezb" x1="212" x2="213" y1="249.5" y2="184.5" gradientUnits="userSpaceOnUse"><stop offset="0" stop-opacity=".3"/><stop offset=".6" stop-opacity="0"/></linearGradient><linearGradient id="roezd" x1="162" x2="163" y1="249.5" y2="184.5" gradientUnits="userSpaceOnUse"><stop offset=".4" stop-opacity="0"/><stop offset="1" stop-opacity=".3"/></linearGradient></defs><g><g transform="translate(-153 -182)"><g><use fill="#fff" xlink:href="#roeza"/><use fill="url(#roezb)" xlink:href="#roeza"/></g><g><use fill="#fff" xlink:href="#roezc"/><use fill="url(#roezd)" xlink:href="#roezc"/></g><g><use fill="#fff" xlink:href="#roeze"/></g></g></g></svg>