<svg xmlns="http://www.w3.org/2000/svg" xmlns:xlink="http://www.w3.org/1999/xlink" width="112" height="123" viewBox="0 0 112 123"><defs><path id="hxbta" d="M205 192a7.5 7.5 0 1 1 15 0v50a7.5 7.5 0 1 1-15 0z"/><path id="hxbtc" d="M155 192a7.5 7.5 0 1 1 15 0v50a7.5 7.5 0 1 1-15 0z"/><path id="hxbte" d="M157.1 186.6a7.5 7.5 0 0 1 10.6 0l50.2 50.2a7.5 7.5 0 1 1-10.6 10.6l-50.2-50.2a7.5 7.5 0 0 1 0-10.6z"/><linearGradient id="hxbtb" x1="212" x2="213" y1="249.5" y2="184.5" gradientUnits="userSpaceOnUse"><stop offset="0" stop-opacity=".3"/><stop offset=".6" stop-opacity="0"/></linearGradient><linearGradient id="hxbtd" x1="162" x2="163" y1="249.5" y2="184.5" gradientUnits="userSpaceOnUse"><stop offset=".4" stop-opacity="0"/><stop offset="1" stop-opacity=".3"/></linearGradient></defs><g><g transform="translate(-132 -129)"><g><use fill="#fff" xlink:href="#hxbta"/><use fill="url(#hxbtb)" xlink:href="#hxbta"/></g><g><use fill="#fff" xlink:href="#hxbtc"/><use fill="url(#hxbtd)" xlink:href="#hxbtc"/></g><g><use fill="#fff" xlink:href="#hxbte"/></g></g><g opacity=".4" transform="translate(-132 -129)"/><g opacity=".2" transform="translate(-132 -129)"/></g></svg>