<svg id="Слой_1" xmlns="http://www.w3.org/2000/svg" xmlns:xlink="http://www.w3.org/1999/xlink" viewBox="0 0 44 44"><style>.st1{fill-rule:evenodd;clip-rule:evenodd;fill:none}</style><defs><path id="SVGID_1_" d="M0 2C0 .9.9 0 2 0h40c1.1 0 2 .9 2 2v40c0 1.1-.9 2-2 2H2c-1.1 0-2-.9-2-2V2z"/></defs><clipPath id="SVGID_2_"><use xlink:href="#SVGID_1_" overflow="visible"/></clipPath><path d="M0 2C0 .9.9 0 2 0h40c1.1 0 2 .9 2 2v40c0 1.1-.9 2-2 2H2c-1.1 0-2-.9-2-2V2z" clip-path="url(#SVGID_2_)" fill="none" stroke="#fff" stroke-width="4" stroke-miterlimit="10"/><path class="st1" d="M-73-484h750V850H-73z"/><path fill="none" stroke="#fff" stroke-width="2" stroke-linecap="square" stroke-miterlimit="10" d="M9.5 10.3h24.8"/><path class="st1" d="M-73-484h750V850H-73z"/><defs><circle id="SVGID_3_" cx="11.1" cy="21.5" r="3.5"/></defs><clipPath id="SVGID_4_"><use xlink:href="#SVGID_3_" overflow="visible"/></clipPath><circle cx="11.1" cy="21.5" r="3.5" clip-path="url(#SVGID_4_)" fill="none" stroke="#fff" stroke-width="4" stroke-miterlimit="10"/><path class="st1" d="M-73-484h750V850H-73z"/><defs><circle id="SVGID_5_" cx="22.1" cy="21.5" r="3.5"/></defs><clipPath id="SVGID_6_"><use xlink:href="#SVGID_5_" overflow="visible"/></clipPath><circle cx="22.1" cy="21.5" r="3.5" clip-path="url(#SVGID_6_)" fill="none" stroke="#fff" stroke-width="4" stroke-miterlimit="10"/><path class="st1" d="M-73-484h750V850H-73z"/><defs><circle id="SVGID_7_" cx="33.1" cy="21.5" r="3.5"/></defs><clipPath id="SVGID_8_"><use xlink:href="#SVGID_7_" overflow="visible"/></clipPath><circle cx="33.1" cy="21.5" r="3.5" clip-path="url(#SVGID_8_)" fill="none" stroke="#fff" stroke-width="4" stroke-miterlimit="10"/><path class="st1" d="M-73-484h750V850H-73z"/><g><defs><circle id="SVGID_9_" cx="11.1" cy="32.4" r="3.5"/></defs><clipPath id="SVGID_10_"><use xlink:href="#SVGID_9_" overflow="visible"/></clipPath><circle cx="11.1" cy="32.4" r="3.5" clip-path="url(#SVGID_10_)" fill="none" stroke="#fff" stroke-width="4" stroke-miterlimit="10"/></g><path class="st1" d="M-73-484h750V850H-73z"/><g><defs><circle id="SVGID_11_" cx="22.1" cy="32.4" r="3.5"/></defs><clipPath id="SVGID_12_"><use xlink:href="#SVGID_11_" overflow="visible"/></clipPath><circle cx="22.1" cy="32.4" r="3.5" clip-path="url(#SVGID_12_)" fill="none" stroke="#fff" stroke-width="4" stroke-miterlimit="10"/></g><path class="st1" d="M-73-484h750V850H-73z"/><g><defs><circle id="SVGID_13_" cx="33.5" cy="32.4" r="3.5"/></defs><clipPath id="SVGID_14_"><use xlink:href="#SVGID_13_" overflow="visible"/></clipPath><circle cx="33.5" cy="32.4" r="3.5" clip-path="url(#SVGID_14_)" fill="none" stroke="#fff" stroke-width="4" stroke-miterlimit="10"/></g><path class="st1" d="M-73-484h750V850H-73z"/></svg>