<svg xmlns="http://www.w3.org/2000/svg" xmlns:xlink="http://www.w3.org/1999/xlink" viewBox="0 0 36 36"><defs><path id="a" d="M29 36c3.9 0 7-3.1 7-7s-3.1-7-7-7-7 3.1-7 7 3.1 7 7 7zM7 36c3.9 0 7-3.1 7-7s-3.1-7-7-7-7 3.1-7 7 3.1 7 7 7zm22-22c3.9 0 7-3.1 7-7s-3.1-7-7-7-7 3.1-7 7 3.1 7 7 7zM7 14c3.9 0 7-3.1 7-7s-3.1-7-7-7-7 3.1-7 7 3.1 7 7 7z"/></defs><clipPath id="b"><use xlink:href="#a" overflow="visible"/></clipPath><path d="M29 36c3.9 0 7-3.1 7-7s-3.1-7-7-7-7 3.1-7 7 3.1 7 7 7zM7 36c3.9 0 7-3.1 7-7s-3.1-7-7-7-7 3.1-7 7 3.1 7 7 7zm22-22c3.9 0 7-3.1 7-7s-3.1-7-7-7-7 3.1-7 7 3.1 7 7 7zM7 14c3.9 0 7-3.1 7-7s-3.1-7-7-7-7 3.1-7 7 3.1 7 7 7z" clip-path="url(#b)" fill="none" stroke="#fff" stroke-width="4" stroke-miterlimit="10"/><path fill-rule="evenodd" clip-rule="evenodd" fill="none" d="M-77-187h750v1334H-77z"/></svg>