<svg id="Слой_1" xmlns="http://www.w3.org/2000/svg" xmlns:xlink="http://www.w3.org/1999/xlink" viewBox="0 0 40 34"><style>.st1{fill-rule:evenodd;clip-rule:evenodd;fill:none}</style><defs><path id="SVGID_1_" d="M0 4c0-2.2 1.8-4 4-4h32c2.2 0 4 1.8 4 4v26c0 2.2-1.8 4-4 4H4c-2.2 0-4-1.8-4-4V4z"/></defs><clipPath id="SVGID_2_"><use xlink:href="#SVGID_1_" overflow="visible"/></clipPath><path d="M0 4c0-2.2 1.8-4 4-4h32c2.2 0 4 1.8 4 4v26c0 2.2-1.8 4-4 4H4c-2.2 0-4-1.8-4-4V4z" clip-path="url(#SVGID_2_)" fill="none" stroke="#fff" stroke-width="4" stroke-linecap="round" stroke-miterlimit="10"/><path class="st1" d="M-95-782h750V552H-95z"/><path fill="none" stroke="#fff" stroke-width="2" stroke-miterlimit="10" d="M38 1L20.5 19 3 1"/><path class="st1" d="M-95-782h750V552H-95z"/></svg>