<svg xmlns="http://www.w3.org/2000/svg" xmlns:xlink="http://www.w3.org/1999/xlink" viewBox="0 0 31 44"><defs><path id="a" d="M15.5 20.9c-3.1 0-5.5-2.4-5.5-5.5s2.4-5.5 5.5-5.5 5.5 2.4 5.5 5.5-2.4 5.5-5.5 5.5zm0-20.9C6.9 0 0 6.8 0 15.4 0 26.8 15.5 44 15.5 44S31 26.8 31 15.4C31 6.8 24.1 0 15.5 0z"/></defs><clipPath id="b"><use xlink:href="#a" overflow="visible"/></clipPath><path d="M15.5 20.9c-3.1 0-5.5-2.4-5.5-5.5s2.4-5.5 5.5-5.5 5.5 2.4 5.5 5.5-2.4 5.5-5.5 5.5zm0-20.9C6.9 0 0 6.8 0 15.4 0 26.8 15.5 44 15.5 44S31 26.8 31 15.4C31 6.8 24.1 0 15.5 0z" clip-path="url(#b)" fill="none" stroke="#fff" stroke-width="4" stroke-miterlimit="10"/><path fill-rule="evenodd" clip-rule="evenodd" fill="none" d="M-560-243h750v1334h-750z"/></svg>