<svg xmlns="http://www.w3.org/2000/svg" xmlns:xlink="http://www.w3.org/1999/xlink" viewBox="0 0 50 50"><defs><path id="a" d="M30.6 32.3l4.3-4.3S45 32.6 45 32.8c0 0-.7 12.2-1.8 12.2C24.7 45 5 25.3 5 6.8 5 5.7 17.4 5 17.4 5l4.8 10.1-4.5 4.3c2.7 5.5 7.4 10 12.9 12.9z"/></defs><clipPath id="b"><use xlink:href="#a" overflow="visible"/></clipPath><path d="M30.6 32.3l4.3-4.3S45 32.6 45 32.8c0 0-.7 12.2-1.8 12.2C24.7 45 5 25.3 5 6.9 5 5.7 17.4 5 17.4 5l4.8 10.1-4.5 4.3c2.7 5.5 7.4 10 12.9 12.9z" clip-path="url(#b)" fill="none" stroke="#000" stroke-width="4" stroke-miterlimit="10"/><path fill-rule="evenodd" clip-rule="evenodd" fill="none" d="M-149-240h750v1334h-750z"/></svg>