<svg xmlns="http://www.w3.org/2000/svg" width="26" height="18" viewBox="0 0 52 36"><path d="M51 22h-4.2c-1.6 0-3.2.1-4.7.3-1.5.2-2.9.6-4.1 1.2-1.2.5-2.2 1.3-2.9 2.2-.7.9-1.1 2.1-1.1 3.4 0 1 .2 1.8.6 2.6.4.8.9 1.4 1.6 1.8s1.4.8 2.1 1.1c.8.3 1.6.4 2.4.4 2 0 3.7-.3 5-1 1.3-.6 2.4-1.5 3.2-2.5.8-1 1.3-2.2 1.6-3.5" fill="none" stroke="#fff" stroke-width="2" stroke-miterlimit="10"/><path d="M36 16.8c.9-.9 2.1-1.6 3.4-2.1 1.4-.5 2.7-.7 3.9-.7 2.3 0 4.2.6 5.6 1.7s2.1 2.9 2.1 5.4V34" fill="none" stroke="#fff" stroke-width="2" stroke-linecap="round" stroke-miterlimit="10"/><path fill="none" stroke="#fff" stroke-width="2" stroke-linecap="square" stroke-miterlimit="10" d="M5.4 25h18.8"/><path fill="none" stroke="#fff" stroke-width="2" stroke-linecap="round" stroke-linejoin="bevel" stroke-miterlimit="10" d="M29 35L15.7 1 1 35"/><path fill-rule="evenodd" clip-rule="evenodd" fill="none" d="M-348-60h750v1334h-750z"/></svg>