<svg id="Слой_1" xmlns="http://www.w3.org/2000/svg" xmlns:xlink="http://www.w3.org/1999/xlink" width="22" height="22" viewBox="0 0 44 44"><style>.st1{fill-rule:evenodd;clip-rule:evenodd;fill:none}</style><defs><circle id="SVGID_1_" cx="22" cy="22" r="22"/></defs><clipPath id="SVGID_2_"><use xlink:href="#SVGID_1_" overflow="visible"/></clipPath><circle cx="22" cy="22" r="22" clip-path="url(#SVGID_2_)" fill="none" stroke="#fff" stroke-width="4" stroke-miterlimit="10"/><path class="st1" d="M-93-847h750V487H-93z"/><defs><path id="SVGID_3_" d="M22 25c3.9 0 7-3.1 7-7s-3.1-7-7-7-7 3.1-7 7 3.1 7 7 7z"/></defs><clipPath id="SVGID_4_"><use xlink:href="#SVGID_3_" overflow="visible"/></clipPath><path d="M22 25c3.8 0 7-3.1 7-7s-3.2-7-7-7-7 3.1-7 7 3.1 7 7 7z" clip-path="url(#SVGID_4_)" fill="none" stroke="#fff" stroke-width="4" stroke-miterlimit="10"/><path class="st1" d="M-93-847h750V487H-93z"/><g><defs><path id="SVGID_5_" d="M38 37c0-5.4-10.6-8-16-8S6 31.6 6 37"/></defs><clipPath id="SVGID_6_"><use xlink:href="#SVGID_5_" overflow="visible"/></clipPath><path d="M38 37c0-5.4-10.6-8-16-8S6 31.6 6 37" clip-path="url(#SVGID_6_)" fill="none" stroke="#fff" stroke-width="4" stroke-miterlimit="10"/></g><path class="st1" d="M-93-847h750V487H-93z"/></svg>