<svg id="Слой_1" xmlns="http://www.w3.org/2000/svg" xmlns:xlink="http://www.w3.org/1999/xlink" viewBox="0 0 86 66"><style>.st1{fill-rule:evenodd;clip-rule:evenodd;fill:none}</style><defs><path id="SVGID_1_" d="M52 65.8l-30.4.2C9.9 66 .4 56.3.4 44.3s9.5-21.7 21.3-21.7c1.8 0 3.6.3 5.3.7C31.5 12 42.3 4 55 4c16.8 0 30.4 13.9 30.4 31S71.8 66 55 66c-1 0-2-.1-3-.2z"/></defs><clipPath id="SVGID_2_"><use xlink:href="#SVGID_1_" overflow="visible"/></clipPath><path d="M52 65.8l-30.3.2C9.9 66 .4 56.3.4 44.3s9.5-21.7 21.2-21.7c1.8 0 3.6.3 5.3.7C31.5 12 42.3 4 55 4c16.8 0 30.4 13.9 30.4 31S71.8 66 55 66c-1 0-2-.1-3-.2z" clip-path="url(#SVGID_2_)" fill="none" stroke="#fff" stroke-width="8" stroke-miterlimit="10"/><path class="st1" d="M-53-372h750V962H-53z"/><g><defs><path id="SVGID_3_" d="M42.4 8.7C38.4 3.4 32.2 0 25.1 0 13.1 0 3.4 9.8 3.4 21.9c0 3.3.7 6.4 2 9.1"/></defs><clipPath id="SVGID_4_"><use xlink:href="#SVGID_3_" overflow="visible"/></clipPath><path d="M42.4 8.7C38.4 3.4 32.2 0 25.1 0 13.1 0 3.4 9.8 3.4 21.9c0 3.3.7 6.4 2 9.1" clip-path="url(#SVGID_4_)" fill="none" stroke="#fff" stroke-width="8" stroke-miterlimit="10"/></g><path class="st1" d="M-53-372h750V962H-53z"/></svg>